<?xml version="1.0" encoding="utf-8"?>
<!-- Generator: Adobe Illustrator 26.3.1, SVG Export Plug-In . SVG Version: 6.00 Build 0)  -->
<svg version="1.1" id="exportSvg" xmlns="http://www.w3.org/2000/svg" xmlns:xlink="http://www.w3.org/1999/xlink" x="0px" y="0px"
	 viewBox="0 0 600.4 413.8" style="enable-background:new 0 0 600.4 413.8;" xml:space="preserve">
<style type="text/css">
	.st0{clip-path:url(#SVGID_00000150086334706769273160000011206557678247692980_);}
	.st1{font-family:'RobotoCondensed-Bold';}
	.st2{font-size:22px;}
	.st3{fill:#181818;}
	.st4{font-family:'Roboto-Regular';}
	.st5{font-size:14px;}
	.st6{clip-path:url(#SVGID_00000104663941195640260900000009921391821773137806_);}
	.st7{fill:none;stroke:#E7E7E7;}
	.st8{fill:none;stroke:#B2DF8A;stroke-width:2;stroke-linecap:round;stroke-linejoin:round;}
	.st9{fill:none;stroke:#A6CEE3;stroke-width:2;stroke-linecap:round;stroke-linejoin:round;}
	.st10{fill:none;stroke:#33A02C;stroke-width:2;stroke-linecap:round;stroke-linejoin:round;}
	.st11{fill:none;stroke:#1F78B4;stroke-width:2;stroke-linecap:round;stroke-linejoin:round;}
	.st12{fill:#747474;}
	.st13{font-size:12px;}
	.st14{fill:#A2A2A2;}
	.st15{fill:none;stroke:#181818;stroke-linecap:square;}
	.st16{fill:none;stroke:#181818;}
	.st17{enable-background:new    ;}
	.st18{letter-spacing:-3;}
	.st19{clip-path:url(#SVGID_00000178905527953951243060000010338714664690314127_);}
	.st20{fill:none;}
	.st21{fill:#888888;}
	.st22{font-size:11px;}
	.st23{letter-spacing:-2;}
</style>
<g>
	<g>
		<defs>
			<rect id="SVGID_1_" x="0.4" width="600" height="400"/>
		</defs>
		<clipPath id="SVGID_00000075157389644358285350000010385697846765716137_">
			<use xlink:href="#SVGID_1_"  style="overflow:visible;"/>
		</clipPath>
		<g id="__svelte-dw-svg" style="clip-path:url(#SVGID_00000075157389644358285350000010385697846765716137_);">
			<g id="header-svg">
				<text transform="matrix(1 0 0 1 0.3682 22)" class="st1 st2">U.S. Treasury Yield Curve by Different Maturities</text>
				<text transform="matrix(1 0 0 1 0.3682 49)" class="st3 st4 st5">The yield curve plots interest rates on bonds of different maturities. The steeper the curve, the</text>
				<text transform="matrix(1 0 0 1 0.3682 66)" class="st3 st4 st5">more confident investors are in the economy.</text>
			</g>
			<g id="chart-svg">
				<g>
					<defs>
						<rect id="SVGID_00000057118622149663108860000010477638615125533360_" x="0.4" y="79" width="600" height="288"/>
					</defs>
					<clipPath id="SVGID_00000045609423301873412120000013899789704276398733_">
						<use xlink:href="#SVGID_00000057118622149663108860000010477638615125533360_"  style="overflow:visible;"/>
					</clipPath>
					
						<g id="svg-main-svg" transform="translate(0.00000, 79.00000)" style="clip-path:url(#SVGID_00000045609423301873412120000013899789704276398733_);">
						<g id="group-svg" transform="translate(21.78125, 7)">
							<g id="y-grid-lines-svg_grid-y-svg_datawrapper-oMJJG-1fn7900-svg">
								<line class="st7" x1="0.4" y1="195.8" x2="575.5" y2="195.8"/>
								<line class="st7" x1="0.4" y1="130.5" x2="575.5" y2="130.5"/>
								<line class="st7" x1="0.4" y1="65.2" x2="575.5" y2="65.2"/>
								<line class="st7" x1="0.4" y1="0" x2="575.5" y2="0"/>
							</g>
							<g id="lines-svg">
								<g id="_x37__x2F_8_x2F_20-svg">
									<path id="_x37__x2F_8_x2F_20" class="st8" d="M10,253.8l50.5-1.3l50.5-1.3l50.5-1.3l50.5,1.3l50.5-0.7l50.5-2l50.5-7.2
										l50.5-12.4l50.5-11.7l50.5-32l50.5-15"/>
								</g>
								<g id="_x36__x2F_8_x2F_22-svg">
									<path id="_x36__x2F_8_x2F_22" class="st9" d="M10,202.9l50.5-13.7l50.5-11.7l50.5-32l50.5-33.9l50.5-32l50.5-10.4l50.5-5.9
										l50.5-2l50.5,2l50.5-24.1l50.5,14.4"/>
								</g>
								<g id="_x37__x2F_8_x2F_21-svg">
									<path id="_x37__x2F_8_x2F_21" class="st10" d="M10,257.1l50.5,0.7l50.5-0.7h50.5l50.5-0.7l50.5-7.8l50.5-11.7l50.5-24.1
										l50.5-20.9l50.5-15.7l50.5-35.2l50.5-4.6"/>
								</g>
								<g id="_x37__x2F_8_x2F_22-svg">
									<path id="_x37__x2F_8_x2F_22" class="st11" d="M10,158.6l50.5-22.8l50.5-3.9l50.5-45.7l50.5-18.3l50.5-10.4l50.5-1.3
										l50.5,0.7l50.5-2l50.5,4.6l50.5-28.7l50.5,17"/>
								</g>
							</g>
							<g id="line-symbols-svg">
							</g>
							<g id="x-tick-labels-svg_grid-x-svg_text-axis-svg_datawrapper-oMJJG-63wp0p-svg" transform="translate(0, 266)">
								<text transform="matrix(1 0 0 1 1.7608 12)" class="st12 st4 st13">1M</text>
								<text transform="matrix(1 0 0 1 52.2231 12)" class="st12 st4 st13">2M</text>
								<text transform="matrix(1 0 0 1 102.6855 12)" class="st12 st4 st13">3M</text>
								<text transform="matrix(1 0 0 1 153.1478 12)" class="st12 st4 st13">6M</text>
								<text transform="matrix(1 0 0 1 205.245 12)" class="st12 st4 st13">1Y</text>
								<text transform="matrix(1 0 0 1 255.7073 12)" class="st12 st4 st13">2Y</text>
								<text transform="matrix(1 0 0 1 306.1697 12)" class="st12 st4 st13">3Y</text>
								<text transform="matrix(1 0 0 1 356.632 12)" class="st12 st4 st13">5Y</text>
								<text transform="matrix(1 0 0 1 407.0944 12)" class="st12 st4 st13">7Y</text>
								<text transform="matrix(1 0 0 1 454.1876 12)" class="st12 st4 st13">10Y</text>
								<text transform="matrix(1 0 0 1 504.65 12)" class="st12 st4 st13">20Y</text>
								<text transform="matrix(1 0 0 1 555.1124 12)" class="st12 st4 st13">30Y</text>
							</g>
							<g id="x-base-lines-svg_grid-x-svg_datawrapper-oMJJG-1io9s9d-svg">
							</g>
							<g id="y-tick-labels-svg_grid-y-svg_number-axis-svg_datawrapper-oMJJG-yhj5g2-svg" transform="translate(-5, 0)">
								<text transform="matrix(1 0 0 1 -6.3701 265)" class="st14 st4 st13">0</text>
								<text transform="matrix(1 0 0 1 -6.3701 199.75)" class="st14 st4 st13">1</text>
								<text transform="matrix(1 0 0 1 -6.3701 134.5)" class="st14 st4 st13">2</text>
								<text transform="matrix(1 0 0 1 -6.3701 69.25)" class="st14 st4 st13">3</text>
								<text transform="matrix(1 0 0 1 -15.1591 4)" class="st14 st4 st13">4%</text>
							</g>
							<g id="y-base-lines-svg_grid-y-svg_datawrapper-oMJJG-1io9s9d-svg">
								<line class="st15" x1="575.5" y1="261" x2="0.4" y2="261"/>
							</g>
						</g>
					</g>
				</g>
				<g id="svelte-1k23k3-svg" transform="translate(389.78125, 284.00000)">
					<g id="callout-line-svg">
						<path class="st16" d="M-91.8-0.4c4.6,13.4,13.7,22.4,27.2,26.7"/>
						<path class="st16" d="M-67.4,21l2.8,5.3l-5.9,1.5"/>
					</g>
				</g>
				<text transform="matrix(1 0 0 1 228.0223 259.6237)" class="st17"><tspan x="0" y="0" class="st3 st4 st5">Normal yield curves </tspan><tspan x="126.3" y="0" class="st3 st4 st5 st18">​</tspan></text>
				<text transform="matrix(1 0 0 1 228.0223 276.4206)" class="st3 st4 st5">slope upward.</text>
				<g>
					<defs>
						<rect id="SVGID_00000180357138353623267490000003691367991778749330_" x="0.4" y="79" width="600" height="288"/>
					</defs>
					<clipPath id="SVGID_00000094596035117120836640000000713658471348382398_">
						<use xlink:href="#SVGID_00000180357138353623267490000003691367991778749330_"  style="overflow:visible;"/>
					</clipPath>
					
						<g id="tooltip-layer-svg" transform="translate(0.00000, 79.00000)" style="clip-path:url(#SVGID_00000094596035117120836640000000713658471348382398_);">
						<g id="group-svg_00000042699851750323137370000005526839608752816312_" transform="translate(21.78125, 7)">
						</g>
					</g>
				</g>
				<g>
					<path class="st16" d="M177.5,125.4"/>
				</g>
				<rect x="279.9" y="376.1" class="st20" width="63.5" height="11.3"/>
				<text transform="matrix(1 0 0 1 279.876 386.6236)" class="st4 st5">Maturities</text>
			</g>
		</g>
	</g>
	<g id="svelte-1k23k3-svg_00000027580339847696420330000010266140352561043105_" transform="translate(389.78125, 284.00000)">
		<g id="callout-line-svg_00000098212567659627325710000016998339616420603067_">
			<path class="st16" d="M-227.7-156.1c4.6,13.4,13.7,22.4,27.2,26.7"/>
			<path class="st16" d="M-203.3-134.7l2.8,5.3l-5.9,1.5"/>
		</g>
	</g>
	<text transform="matrix(1 0 0 1 92.1048 103.8607)" class="st17"><tspan x="0" y="0" class="st3 st4 st5">Recent yield curves </tspan><tspan x="123.4" y="0" class="st3 st4 st5 st18">​</tspan></text>
	<text transform="matrix(1 0 0 1 92.1048 120.6576)" class="st3 st4 st5">have begun to flatten.</text>
</g>
<g id="footer-svg">
	<text transform="matrix(1 0 0 1 0.3682 408)" class="st21 st4 st22">Source</text>
	<text transform="matrix(1 0 0 1 34.4371 408)" class="st21 st4 st22">:</text>
	<text transform="matrix(1 0 0 1 37.1011 408)" class="st17"><tspan x="0" y="0" class="st21 st4 st22 st23">​</tspan><tspan x="0" y="0" class="st21 st4 st22"> </tspan><tspan x="2.7" y="0" class="st21 st4 st22 st23">​</tspan></text>
	<text transform="matrix(1 0 0 1 39.8243 408)" class="st21 st4 st22">U.S. Department of the Treasury</text>
	<text transform="matrix(1 0 0 1 195.7901 408)" class="st17"><tspan x="0" y="0" class="st21 st4 st22 st23">​</tspan><tspan x="0" y="0" class="st21 st4 st22"> </tspan><tspan x="2.7" y="0" class="st21 st4 st22 st23">​</tspan></text>
	<text transform="matrix(1 0 0 1 198.5132 408)" class="st21 st4 st22">•</text>
	<text transform="matrix(1 0 0 1 202.2193 408)" class="st17"><tspan x="0" y="0" class="st21 st4 st22 st23">​</tspan><tspan x="0" y="0" class="st21 st4 st22"> </tspan><tspan x="2.7" y="0" class="st21 st4 st22 st23">​</tspan></text>
	<text transform="matrix(1 0 0 1 204.9424 408)" class="st21 st4 st22">Created with</text>
	<text transform="matrix(1 0 0 1 266.5704 408)" class="st17"><tspan x="0" y="0" class="st21 st4 st22 st23">​</tspan><tspan x="0" y="0" class="st21 st4 st22"> </tspan><tspan x="2.7" y="0" class="st21 st4 st22 st23">​</tspan></text>
	<text transform="matrix(1 0 0 1 269.2935 408)" class="st21 st4 st22">Datawrapper</text>
</g>
<text transform="matrix(1 0 0 1 0.3682 66)" class="st3 st4 st5">more confident investors are in the economy.</text>
<g>
	<text transform="matrix(1 0 0 1 66.3983 208.6262)" class="st3 st4 st5">This week</text>
</g>
<g>
	<text transform="matrix(1 0 0 1 66.7334 255.5517)" class="st3 st4 st5">Last week</text>
</g>
<g>
	<text transform="matrix(1 0 0 1 413.4849 245.052)" class="st3 st4 st5">One year ago </text>
</g>
<g>
	<text transform="matrix(1 0 0 1 413.1501 339.2907)" class="st3 st4 st5">Two years ago</text>
</g>
</svg>
